<?xml version="1.0" ?><svg style="enable-background:new 0 0 512 512;" version="1.1" viewBox="0 0 512 512" xml:space="preserve" xmlns="http://www.w3.org/2000/svg" xmlns:xlink="http://www.w3.org/1999/xlink"><g id="outerdark"><path d="M256.5,20C126.4,20,21,125.4,21,255.5S126.4,491,256.5,491S492,385.6,492,255.5S386.6,20,256.5,20z    M256,460.5c-112.9,0-204.5-91.6-204.5-204.5S143.1,51.5,256,51.5S460.5,143.1,460.5,256S368.9,460.5,256,460.5z" style="fill:#FBB040;"/></g><g id="outerlight"><path d="M423.1,89l-22.4,22.4c37,37,59.8,88.1,59.8,144.6c0,112.9-91.6,204.5-204.5,204.5   c-56.4,0-107.6-22.9-144.6-59.8L90,422.1c92,92,241.1,92,333,0S515,181,423.1,89z" style="opacity:0.2;fill:#FFFFFF;"/></g><g id="innerdark"><circle cx="256" cy="256" r="180" style="fill:#FBB040;"/></g><g id="Email"><g><path d="M257.1,258.3c-0.7,0.5-1.5,0.5-2.2,0l-47.5-34.7    l-44-32.2c-1.5-1.1-0.7-3.4,1.1-3.4H256h91.5c1.8,0,2.6,2.3,1.1,3.4l-44,32.2L257.1,258.3z" style="fill:none;stroke:#FFFFFF;stroke-width:14;stroke-miterlimit:10;"/><path d="M304.8,252.2l-45.7,33.3c-1.7,1.2-4,1.2-5.7,0    l-46.2-33.4l-41-30.7c-3.2-2.4-7.7-0.1-7.7,3.9v62.8v1v29.9c0,2.7,2.2,4.8,4.8,4.8h185.3c2.7,0,4.8-2.2,4.8-4.8v-29.9v-1v-62.8    c0-4-4.5-6.2-7.7-3.9L304.8,252.2z" style="fill:none;stroke:#FFFFFF;stroke-width:14;stroke-miterlimit:10;"/></g></g><g id="innerlight"><path d="M128.1,382.6c-70.3-70.3-70.3-184.3,0-254.6s184.3-70.3,254.6,0" style="opacity:0.2;fill:#FFFFFF;"/><g/><g/><g/><g/><g/><g/></g></svg>