<?xml version="1.0" ?><svg enable-background="new 0 0 512 512" id="Layer_1" version="1.1" viewBox="0 0 512 512" xml:space="preserve" xmlns="http://www.w3.org/2000/svg" xmlns:xlink="http://www.w3.org/1999/xlink"><g><g><linearGradient gradientUnits="userSpaceOnUse" id="SVGID_1_" x1="-0.0000027" x2="512" y1="256" y2="256"><stop offset="0" style="stop-color:#FFCA05"/><stop offset="1" style="stop-color:#FAAC18"/></linearGradient><circle cx="256" cy="256" fill="url(#SVGID_1_)" r="256"/><linearGradient gradientUnits="userSpaceOnUse" id="SVGID_2_" x1="42.6666641" x2="469.3333435" y1="256.0005188" y2="256.0005188"><stop offset="0" style="stop-color:#FAAC18"/><stop offset="1" style="stop-color:#FFCA05"/></linearGradient><path d="M256,469.3338623c-117.6315155,0-213.3333435-95.7018738-213.3333435-213.3333435    c0-117.6309204,95.7018204-213.333313,213.3333435-213.333313c117.6356812,0,213.3333435,95.7024002,213.3333435,213.333313    C469.3333435,373.6319885,373.6356812,469.3338623,256,469.3338623z" fill="url(#SVGID_2_)"/></g><g><path d="M365.6474304,196.4373322c-10.1365356,0-18.3530884,8.2165375-18.3530884,18.3530731    c0,4.964798,1.9904175,9.4522552,5.1930847,12.7567902l-37.6767578,36.5258636l-39.0864563-61.9877319    c6.1989441-3.907196,10.3482666-10.7663879,10.3482666-18.636261c0-12.1898651-9.8821106-22.0730743-22.0724792-22.0730743    c-12.1899109,0-22.072052,9.8832092-22.072052,22.0730743c0,7.8549347,4.1328125,14.7071991,10.3136139,18.6197357    l-39.0704041,62.0042572l-37.6613312-36.5237274c3.204834-3.3034668,5.1962585-7.7925262,5.1962585-12.7589264    c0-10.1365356-8.2170563-18.3530731-18.3530579-18.3530731S144,204.6538696,144,214.7904053    c0,10.1354675,8.2170258,18.3519897,18.3530273,18.3519897c1.1146545,0,2.1946564-0.1375885,3.2554626-0.3285217    l17.4021301,84.5375977H344.988739l17.4026794-84.5375977c1.0602722,0.1919861,2.1402588,0.3285217,3.256012,0.3285217    C375.7834167,233.142395,384,224.9258728,384,214.7904053C384,204.6538696,375.7834167,196.4373322,365.6474304,196.4373322z" opacity="0.3"/><polygon opacity="0.3" points="185.0692902,327.3514709 175.53862,366.6239929 352.4474182,366.6239929 342.916748,327.3514709       "/></g><g><path d="M357.6474304,188.4373322c-10.1365356,0-18.3530884,8.2165375-18.3530884,18.3530731    c0,4.964798,1.9904175,9.4522552,5.1930847,12.7567902l-37.6767578,36.5258636l-39.0864563-61.9877319    c6.1989441-3.907196,10.3482666-10.7663879,10.3482666-18.636261c0-12.1898651-9.8821106-22.0730743-22.0724792-22.0730743    c-12.1899109,0-22.072052,9.8832092-22.072052,22.0730743c0,7.8549347,4.1328125,14.7071991,10.3136139,18.6197357    l-39.0704041,62.0042572l-37.6613312-36.5237274c3.204834-3.3034668,5.1962585-7.7925262,5.1962585-12.7589264    c0-10.1365356-8.2170563-18.3530731-18.3530579-18.3530731S136,196.6538696,136,206.7904053    c0,10.1354675,8.2170258,18.3519897,18.3530273,18.3519897c1.1146545,0,2.1946564-0.1375885,3.2554626-0.3285217    l17.4021301,84.5375977H336.988739l17.4026794-84.5375977c1.0602722,0.1919861,2.1402588,0.3285217,3.256012,0.3285217    C367.7834167,225.142395,376,216.9258728,376,206.7904053C376,196.6538696,367.7834167,188.4373322,357.6474304,188.4373322z" fill="#FFFFFF"/><polygon fill="#FFFFFF" points="177.0692902,319.3514709 167.53862,358.6239929 344.4474182,358.6239929 334.916748,319.3514709       "/></g></g></svg>