<?xml version="1.0" ?><svg enable-background="new 0 0 512 512" id="Layer_1" version="1.1" viewBox="0 0 512 512" xml:space="preserve" xmlns="http://www.w3.org/2000/svg" xmlns:xlink="http://www.w3.org/1999/xlink"><g><g><linearGradient gradientUnits="userSpaceOnUse" id="SVGID_1_" x1="0.0000083" x2="512" y1="256" y2="256"><stop offset="0" style="stop-color:#FFCA05"/><stop offset="1" style="stop-color:#FAAC18"/></linearGradient><circle cx="256" cy="256" fill="url(#SVGID_1_)" r="256"/><linearGradient gradientUnits="userSpaceOnUse" id="SVGID_2_" x1="42.6666756" x2="469.333313" y1="256.0005188" y2="256.0005188"><stop offset="0" style="stop-color:#FAAC18"/><stop offset="1" style="stop-color:#FFCA05"/></linearGradient><path d="M256,469.3338623c-117.6309204,0-213.3333282-95.7023926-213.3333282-213.3333435    c0-117.6314545,95.7024078-213.333313,213.3333282-213.333313c117.636261,0,213.333313,95.7018661,213.333313,213.333313    C469.333313,373.6314697,373.636261,469.3338623,256,469.3338623z" fill="url(#SVGID_2_)"/></g><g id="XMLID_71_"><rect height="107.499733" id="XMLID_77_" opacity="0.3" width="107.5002518" x="144.0000153" y="144"/><rect height="107.499733" id="XMLID_76_" opacity="0.3" width="107.499733" x="276.5002747" y="144"/><rect height="107.500267" id="XMLID_73_" opacity="0.3" width="107.5002518" x="144.0000153" y="276.4997253"/><rect height="107.500267" id="XMLID_72_" opacity="0.3" width="107.499733" x="276.5002747" y="276.4997253"/></g><g id="XMLID_261_"><rect fill="#FFFFFF" height="107.499733" id="XMLID_258_" width="107.5002518" x="136.0000153" y="136"/><rect fill="#FFFFFF" height="107.499733" id="XMLID_268_" width="107.499733" x="268.5002747" y="136"/><rect fill="#FFFFFF" height="107.500267" id="XMLID_269_" width="107.5002518" x="136.0000153" y="268.4997253"/><rect fill="#FFFFFF" height="107.500267" id="XMLID_270_" width="107.499733" x="268.5002747" y="268.4997253"/></g></g></svg>